<mxfile host="app.diagrams.net" modified="2023-11-24T23:10:10.085Z" agent="Mozilla/5.0 (Windows NT 10.0; Win64; x64) AppleWebKit/537.36 (KHTML, like Gecko) Chrome/119.0.0.0 Safari/537.36 Edg/119.0.0.0" etag="6VEn5WKFJGSVqkcoMUan" version="22.1.4" type="device">
  <diagram name="Page-1" id="OTMkpfbdok4QF9HdCuu1">
    <mxGraphModel dx="1106" dy="623" grid="1" gridSize="10" guides="1" tooltips="1" connect="1" arrows="1" fold="1" page="1" pageScale="1" pageWidth="850" pageHeight="1100" math="0" shadow="0">
      <root>
        <mxCell id="0" />
        <mxCell id="1" parent="0" />
        <mxCell id="ut0kZaqvtnuqAE0CNnaf-9" value="" style="rounded=0;whiteSpace=wrap;html=1;" parent="1" vertex="1">
          <mxGeometry x="30" width="820" height="30" as="geometry" />
        </mxCell>
        <mxCell id="ut0kZaqvtnuqAE0CNnaf-10" value="" style="rounded=0;whiteSpace=wrap;html=1;" parent="1" vertex="1">
          <mxGeometry x="248" y="580" width="342" height="30" as="geometry" />
        </mxCell>
        <mxCell id="ut0kZaqvtnuqAE0CNnaf-18" value="" style="rounded=0;whiteSpace=wrap;html=1;" parent="1" vertex="1">
          <mxGeometry x="240" y="449" width="370" height="168" as="geometry" />
        </mxCell>
        <mxCell id="ut0kZaqvtnuqAE0CNnaf-19" value="" style="rounded=0;whiteSpace=wrap;html=1;" parent="1" vertex="1">
          <mxGeometry x="240" y="281" width="370" height="159" as="geometry" />
        </mxCell>
        <mxCell id="HrTbsQznbyTT4uqUS8rh-1" value="Registar Sponsor" style="text;strokeColor=none;fillColor=none;html=1;fontSize=17;fontStyle=1;verticalAlign=middle;align=center;" parent="1" vertex="1">
          <mxGeometry x="380" y="158" width="100" height="40" as="geometry" />
        </mxCell>
        <mxCell id="HrTbsQznbyTT4uqUS8rh-2" value="logo" style="whiteSpace=wrap;html=1;aspect=fixed;" parent="1" vertex="1">
          <mxGeometry x="395" y="190" width="60" height="60" as="geometry" />
        </mxCell>
        <mxCell id="HrTbsQznbyTT4uqUS8rh-4" value="upload" style="rounded=1;html=1;whiteSpace=wrap;align=center;verticalAlign=middle;fontStyle=0;fontSize=12;sketch=0;" parent="1" vertex="1">
          <mxGeometry x="396" y="254" width="59" height="20" as="geometry" />
        </mxCell>
        <mxCell id="HrTbsQznbyTT4uqUS8rh-5" value="" style="rounded=0;whiteSpace=wrap;html=1;" parent="1" vertex="1">
          <mxGeometry x="250" y="580" width="340" height="30" as="geometry" />
        </mxCell>
        <UserObject label="Morada" placeholders="1" id="HrTbsQznbyTT4uqUS8rh-8">
          <mxCell style="text;html=1;strokeColor=none;fillColor=none;align=center;verticalAlign=middle;whiteSpace=wrap;overflow=hidden;" parent="1" vertex="1">
            <mxGeometry x="190" y="452" width="160" height="20" as="geometry" />
          </mxCell>
        </UserObject>
        <UserObject label="Codigo Postal" placeholders="1" id="HrTbsQznbyTT4uqUS8rh-9">
          <mxCell style="text;html=1;strokeColor=none;fillColor=none;align=center;verticalAlign=middle;whiteSpace=wrap;overflow=hidden;" parent="1" vertex="1">
            <mxGeometry x="208" y="507" width="160" height="20" as="geometry" />
          </mxCell>
        </UserObject>
        <mxCell id="HrTbsQznbyTT4uqUS8rh-10" value="" style="rounded=0;whiteSpace=wrap;html=1;" parent="1" vertex="1">
          <mxGeometry x="275" y="705" width="180" height="30" as="geometry" />
        </mxCell>
        <mxCell id="HrTbsQznbyTT4uqUS8rh-11" value="" style="rounded=0;whiteSpace=wrap;html=1;" parent="1" vertex="1">
          <mxGeometry x="250" y="527" width="340" height="30" as="geometry" />
        </mxCell>
        <UserObject label="Cidade" placeholders="1" id="HrTbsQznbyTT4uqUS8rh-12">
          <mxCell style="text;html=1;strokeColor=none;fillColor=none;align=center;verticalAlign=middle;whiteSpace=wrap;overflow=hidden;" parent="1" vertex="1">
            <mxGeometry x="188" y="560" width="160" height="20" as="geometry" />
          </mxCell>
        </UserObject>
        <mxCell id="HrTbsQznbyTT4uqUS8rh-13" value="" style="rounded=0;whiteSpace=wrap;html=1;" parent="1" vertex="1">
          <mxGeometry x="250" y="301" width="340" height="30" as="geometry" />
        </mxCell>
        <UserObject label="Nome" placeholders="1" id="HrTbsQznbyTT4uqUS8rh-14">
          <mxCell style="text;html=1;strokeColor=none;fillColor=none;align=center;verticalAlign=middle;whiteSpace=wrap;overflow=hidden;" parent="1" vertex="1">
            <mxGeometry x="190" y="282" width="160" height="20" as="geometry" />
          </mxCell>
        </UserObject>
        <UserObject label="Telefone" placeholders="1" id="HrTbsQznbyTT4uqUS8rh-15">
          <mxCell style="text;html=1;strokeColor=none;fillColor=none;align=center;verticalAlign=middle;whiteSpace=wrap;overflow=hidden;" parent="1" vertex="1">
            <mxGeometry x="193.1" y="333" width="160" height="20" as="geometry" />
          </mxCell>
        </UserObject>
        <mxCell id="HrTbsQznbyTT4uqUS8rh-16" value="" style="rounded=0;whiteSpace=wrap;html=1;" parent="1" vertex="1">
          <mxGeometry x="250" y="351" width="340" height="30" as="geometry" />
        </mxCell>
        <mxCell id="HrTbsQznbyTT4uqUS8rh-17" value="" style="rounded=0;whiteSpace=wrap;html=1;" parent="1" vertex="1">
          <mxGeometry x="250" y="397" width="340" height="30" as="geometry" />
        </mxCell>
        <UserObject label="NIF" placeholders="1" id="HrTbsQznbyTT4uqUS8rh-18">
          <mxCell style="text;html=1;strokeColor=none;fillColor=none;align=center;verticalAlign=middle;whiteSpace=wrap;overflow=hidden;" parent="1" vertex="1">
            <mxGeometry x="183" y="381" width="160" height="20" as="geometry" />
          </mxCell>
        </UserObject>
        <mxCell id="HrTbsQznbyTT4uqUS8rh-21" value="Registar" style="rounded=1;html=1;whiteSpace=wrap;align=center;verticalAlign=middle;fontStyle=0;fontSize=12;sketch=0;" parent="1" vertex="1">
          <mxGeometry x="317" y="760" width="78" height="20" as="geometry" />
        </mxCell>
        <mxCell id="HrTbsQznbyTT4uqUS8rh-22" value="" style="rounded=0;whiteSpace=wrap;html=1;" parent="1" vertex="1">
          <mxGeometry x="240.5" y="624" width="370" height="126" as="geometry" />
        </mxCell>
        <UserObject label="Selecionar animal" placeholders="1" id="HrTbsQznbyTT4uqUS8rh-23">
          <mxCell style="text;html=1;strokeColor=none;fillColor=none;align=center;verticalAlign=middle;whiteSpace=wrap;overflow=hidden;" parent="1" vertex="1">
            <mxGeometry x="220" y="684" width="160" height="20" as="geometry" />
          </mxCell>
        </UserObject>
        <mxCell id="HrTbsQznbyTT4uqUS8rh-24" value="" style="rounded=0;whiteSpace=wrap;html=1;" parent="1" vertex="1">
          <mxGeometry x="250" y="473" width="340" height="30" as="geometry" />
        </mxCell>
        <UserObject label="Fundos" placeholders="1" id="HrTbsQznbyTT4uqUS8rh-25">
          <mxCell style="text;html=1;strokeColor=none;fillColor=none;align=center;verticalAlign=middle;whiteSpace=wrap;overflow=hidden;" parent="1" vertex="1">
            <mxGeometry x="190.00000000000003" y="624" width="160" height="20" as="geometry" />
          </mxCell>
        </UserObject>
        <mxCell id="HrTbsQznbyTT4uqUS8rh-27" value="" style="rounded=0;whiteSpace=wrap;html=1;" parent="1" vertex="1">
          <mxGeometry x="248" y="644" width="330" height="30" as="geometry" />
        </mxCell>
        <mxCell id="HrTbsQznbyTT4uqUS8rh-29" value="" style="sketch=0;html=1;aspect=fixed;strokeColor=none;shadow=0;fillColor=#3B8DF1;verticalAlign=top;labelPosition=center;verticalLabelPosition=bottom;shape=mxgraph.gcp2.phone_android" parent="1" vertex="1">
          <mxGeometry x="172.88" y="60" width="492.24" height="879" as="geometry" />
        </mxCell>
        <mxCell id="BKZUSbgrL04waZxfasw0-5" value="" style="rounded=0;whiteSpace=wrap;html=1;" vertex="1" parent="1">
          <mxGeometry x="250" y="704" width="330" height="30" as="geometry" />
        </mxCell>
        <mxCell id="BKZUSbgrL04waZxfasw0-7" value="" style="shape=flexArrow;endArrow=classic;html=1;rounded=0;" edge="1" parent="1">
          <mxGeometry width="50" height="50" relative="1" as="geometry">
            <mxPoint x="561" y="710" as="sourcePoint" />
            <mxPoint x="561" y="730" as="targetPoint" />
          </mxGeometry>
        </mxCell>
        <mxCell id="BKZUSbgrL04waZxfasw0-8" value="Cancelar" style="rounded=1;html=1;whiteSpace=wrap;align=center;verticalAlign=middle;fontStyle=0;fontSize=12;sketch=0;" vertex="1" parent="1">
          <mxGeometry x="410" y="760" width="78" height="20" as="geometry" />
        </mxCell>
      </root>
    </mxGraphModel>
  </diagram>
</mxfile>
